<svg width="34" height="30" viewBox="0 0 34 30" fill="none" xmlns="http://www.w3.org/2000/svg">
<path d="M10.9855 9.59994C11.5378 9.59994 11.9855 9.15223 11.9855 8.59994C11.9855 8.04766 11.5378 7.59994 10.9855 7.59994L10.9855 9.59994ZM23.0147 7.59994C22.4624 7.59994 22.0147 8.04766 22.0147 8.59994C22.0147 9.15223 22.4624 9.59994 23.0147 9.59994L23.0147 7.59994ZM31.0366 14.6145L31.0366 22.1328L33.0366 22.1328L33.0366 14.6145L31.0366 14.6145ZM26.022 27.1474L7.97822 27.1474L7.97822 29.1474L26.022 29.1474L26.022 27.1474ZM2.96362 22.1328L2.96362 14.6145L0.963623 14.6145L0.963622 22.1328L2.96362 22.1328ZM7.97822 9.59994L10.9855 9.59994L10.9855 7.59994L7.97822 7.59994L7.97822 9.59994ZM23.0147 9.59994L26.022 9.59994L26.022 7.59994L23.0147 7.59994L23.0147 9.59994ZM2.96362 14.6145C2.96362 11.8451 5.20874 9.59994 7.97822 9.59994L7.97822 7.59994C4.10417 7.59994 0.963623 10.7405 0.963623 14.6145L2.96362 14.6145ZM7.97822 27.1474C5.20873 27.1474 2.96362 24.9023 2.96362 22.1328L0.963622 22.1328C0.963622 26.0068 4.10417 29.1474 7.97822 29.1474L7.97822 27.1474ZM31.0366 22.1328C31.0366 24.9023 28.7915 27.1474 26.022 27.1474L26.022 29.1474C29.8961 29.1474 33.0366 26.0068 33.0366 22.1328L31.0366 22.1328ZM33.0366 14.6145C33.0366 10.7405 29.8961 7.59994 26.022 7.59994L26.022 9.59994C28.7915 9.59994 31.0366 11.8451 31.0366 14.6145L33.0366 14.6145Z" fill="black"/>
<path d="M12.489 16.1182L15.9367 19.5659C16.5239 20.1532 17.476 20.1532 18.0632 19.5659L21.5109 16.1182" stroke="black" stroke-width="2" stroke-linecap="round"/>
<path d="M17 19.1255L17 1.08173" stroke="black" stroke-width="2" stroke-linecap="round"/>
</svg>
