<svg width="146" height="50" viewBox="0 0 146 50" fill="none" xmlns="http://www.w3.org/2000/svg">
<g clip-path="url(#clip0_14_26)">
<path d="M66.5902 15.1067C63.0536 10.1891 59.5169 5.30514 55.9466 0.320137C56.1487 0.320137 56.3171 0.286454 56.4518 0.286454C62.582 0.286454 68.6786 0.252772 74.8088 0.286454C77.9749 0.320137 81.1074 0.555914 84.1388 1.53271C86.4292 2.27372 88.4838 3.41892 90.0332 5.3725C91.2795 6.95558 91.9531 8.80811 92.1889 10.7617C92.391 12.5805 92.391 14.3994 91.8184 16.1846C90.7743 19.5865 88.4165 21.7422 85.2503 23.1232C84.8798 23.2916 84.5093 23.3926 84.1725 23.5273C84.0714 23.561 83.9367 23.6284 83.8357 23.6621C83.8357 23.6958 83.8357 23.7294 83.8357 23.7631C84.1388 23.8305 84.4083 23.8642 84.7114 23.9315C88.3828 24.6725 91.2795 26.4914 93.132 29.7923C94.3783 32.0153 94.7825 34.4068 94.5804 36.8993C94.412 39.3244 93.6709 41.5138 92.1889 43.4337C91.3805 44.5115 89.9322 45.7914 89.1238 46.1956C88.9891 46.0272 88.8543 45.8251 88.7196 45.6567C86.8671 43.0968 85.0146 40.5033 83.1283 37.9434C82.9599 37.7077 82.9599 37.5392 83.0946 37.2698C84.1725 35.3499 83.9367 32.8574 82.522 31.3754C81.5789 30.3649 80.3664 29.8933 79.0528 29.5902C78.4128 29.4218 77.7391 29.3544 77.0655 29.2534C76.9308 29.2197 76.796 29.186 76.7287 29.0849C74.573 26.1209 72.451 23.1568 70.2953 20.1928C70.2616 20.1591 70.2616 20.0917 70.228 19.9907C70.43 19.9907 70.5985 19.9907 70.7332 19.9907C72.4173 19.957 74.0678 20.0244 75.7519 19.9233C77.4023 19.8223 78.918 19.2834 80.1643 18.0708C81.9831 16.2519 82.2863 11.7722 78.5475 10.2228C77.2002 9.65018 75.8192 9.44808 74.3709 9.44808C71.9794 9.4144 69.588 9.44808 67.1965 9.44808C66.826 9.44808 66.725 9.54913 66.725 9.91964C66.7587 11.5027 66.725 13.0858 66.725 14.6352C66.725 14.7699 66.725 14.9046 66.725 15.0731C66.6576 15.1067 66.6239 15.1067 66.5902 15.1067Z" fill="black"/>
<path d="M14.6856 9.88597C14.6856 9.71755 14.6856 9.58283 14.6856 9.41441C14.6856 6.51772 14.6856 3.65471 14.6856 0.758023C14.6519 0.387516 14.7866 0.286469 15.1571 0.286469C24.7566 0.286469 34.3898 0.286469 43.9893 0.320151C44.1914 0.320151 44.4946 0.421198 44.6293 0.555928C47.2902 3.58735 49.9511 6.61877 52.5784 9.61651C52.6457 9.68387 52.6794 9.75124 52.7804 9.91965C52.5447 9.91965 52.4099 9.91965 52.2415 9.91965C47.9302 9.91965 43.6188 9.91965 39.3075 9.91965C38.7012 9.91965 38.7012 9.91965 38.7012 10.4923C38.7012 19.3844 38.7012 28.2429 38.7012 37.1351C38.7012 37.3035 38.7012 37.4719 38.7012 37.7077C38.5665 37.6403 38.4991 37.6066 38.4317 37.5393C34.9961 34.7099 31.5605 31.8806 28.0912 29.0513C27.8554 28.8492 27.8554 28.6471 27.8554 28.4113C27.8554 22.4832 27.8554 16.5551 27.8554 10.6607C27.8554 9.75124 27.9565 9.88597 27.0807 9.88597C23.1062 9.88597 19.1317 9.88597 15.1571 9.88597C15.0561 9.91965 14.8877 9.88597 14.6856 9.88597Z" fill="black"/>
<path d="M93.873 49.5976C99.3633 36.3941 104.82 23.2242 110.31 9.98703C110.411 10.1554 110.478 10.2565 110.546 10.3575C112.365 13.5574 114.217 16.7572 116.036 19.957C116.205 20.2602 116.205 20.496 116.103 20.7991C114.958 23.6958 113.847 26.5588 112.702 29.4555C112.634 29.5902 112.6 29.7586 112.499 29.9944C112.702 29.9944 112.87 29.9944 113.005 29.9944C115.8 29.9944 118.596 29.9944 121.392 29.9944C121.594 29.9944 121.762 30.0281 121.863 30.2302C123.514 33.1269 125.164 36.0236 126.814 38.9203C126.848 38.9876 126.882 39.055 126.916 39.156C126.713 39.156 126.579 39.156 126.41 39.156C120.752 39.156 115.127 39.156 109.468 39.156C109.098 39.156 108.929 39.2908 108.794 39.6276C107.548 42.8611 106.268 46.0609 105.022 49.2608C104.921 49.4965 104.82 49.6313 104.517 49.6313C101.047 49.6313 97.6118 49.6313 94.1425 49.6313C94.1425 49.6313 94.0415 49.6313 93.873 49.5976Z" fill="black"/>
<path d="M145.643 49.6313C145.441 49.6313 145.306 49.6313 145.171 49.6313C142.005 49.6313 138.839 49.6313 135.673 49.6313C135.336 49.6313 135.168 49.5302 135.033 49.2271C128.33 33.0595 121.627 16.8919 114.925 0.724331C114.891 0.589602 114.824 0.488554 114.756 0.28646C114.925 0.28646 115.093 0.252777 115.228 0.252777C118.057 0.252777 120.886 0.252777 123.716 0.252777C124.053 0.252777 124.221 0.353824 124.356 0.656967C128.734 10.7617 133.147 20.8664 137.559 31.0049C140.186 37.0677 142.814 43.0969 145.441 49.1597C145.508 49.2944 145.576 49.4292 145.643 49.6313Z" fill="black"/>
<path d="M55.8456 13.3216C60.4937 18.6434 65.0745 23.8979 69.7564 29.186C68.6786 29.186 67.7355 29.186 66.725 29.186C66.725 29.3544 66.6913 29.5228 66.6913 29.6576C66.6913 33.0932 66.6913 36.5625 66.6913 39.9981C66.6913 40.3686 66.7587 40.4696 67.1629 40.4696C70.3627 40.4696 73.5625 40.4696 76.7287 40.4359C77.5034 40.4359 78.2444 40.2338 79.0191 40.1665C79.1538 40.1665 79.3896 40.1665 79.4569 40.2675C81.68 42.76 83.8694 45.2862 86.0587 47.8124C86.0587 47.8124 86.0587 47.8461 86.0924 47.9134C85.3514 48.1492 84.6104 48.4187 83.8357 48.6208C81.7137 49.2271 79.5243 49.5639 77.3013 49.5976C70.2616 49.6312 63.2557 49.6312 56.2161 49.6312C56.0813 49.6312 55.9803 49.5976 55.8456 49.5976C55.8456 37.5392 55.8456 25.4809 55.8456 13.3216Z" fill="black"/>
<path d="M0.0337345 17.9361C0.202147 18.0371 0.336877 18.1045 0.437924 18.2055C3.77249 20.3612 7.14073 22.5169 10.4753 24.6726C10.7448 24.841 10.8458 25.0094 10.8458 25.3462C10.8458 33.2953 10.8458 41.2443 10.8458 49.1597C10.8458 49.2944 10.8458 49.4628 10.8458 49.6313C10.6774 49.6313 10.509 49.6649 10.3742 49.6649C7.07337 49.6649 3.77249 49.6649 0.471606 49.6649C0.067417 49.6649 -0.0336304 49.5639 -0.0336304 49.1597C-0.0336304 38.8866 -0.0336304 28.6471 -0.0336304 18.3739C5.20801e-05 18.2729 0.0337345 18.1382 0.0337345 17.9361Z" fill="black"/>
<path d="M27.9565 49.5976C27.9565 45.0167 27.9565 40.5033 27.9565 35.8888C28.1249 35.9898 28.2259 36.0572 28.3606 36.1246C31.6952 38.2802 35.0634 40.4359 38.398 42.5916C38.6675 42.76 38.7685 42.9284 38.7685 43.2316C38.7685 45.2188 38.7685 47.2061 38.7685 49.1934C38.7685 49.4965 38.7012 49.6312 38.3643 49.6312C35.0298 49.6312 31.6952 49.6312 28.3606 49.6312C28.1922 49.6312 28.0912 49.6312 27.9565 49.5976Z" fill="black"/>
<path d="M10.8458 0.320151C10.8458 5.17042 10.8458 9.95333 10.8458 14.8373C10.5763 14.6352 10.3405 14.4668 10.1384 14.2647C6.87125 11.6038 3.63774 8.90918 0.370538 6.24826C0.101078 6.04617 3.05176e-05 5.81039 3.05176e-05 5.47357C0.033713 3.89049 3.05176e-05 2.30742 3.05176e-05 0.72434C3.05176e-05 0.421198 0.0673954 0.286469 0.40422 0.286469C3.77247 0.286469 7.14071 0.286469 10.509 0.286469C10.61 0.286469 10.7111 0.320151 10.8458 0.320151Z" fill="black"/>
</g>
<defs>
<clipPath id="clip0_14_26">
<rect width="145.643" height="49.3785" fill="white" transform="translate(0 0.286469)"/>
</clipPath>
</defs>
</svg>
