<svg width="1em" height="1em" viewBox="0 0 24 24" xmlns="http://www.w3.org/2000/svg" xmlns:xlink="http://www.w3.org/1999/xlink" font-size="24"><defs><path d="M21.22 11.657a.5.5 0 01-.02.706l-.13.119c-.131.113-.314.262-.547.438-.468.352-1 .703-1.595 1.036l1.564 2.536a.5.5 0 01-.797.597l-.054-.072-1.604-2.598c-.718.344-1.466.633-2.24.858l.89 2.58a.5.5 0 01-.908.41l-.037-.083-.919-2.661c-.771.165-1.567.267-2.386.297v2.799a.5.5 0 01-.993.09l-.008-.09V15.82a13.773 13.773 0 01-2.308-.277l-.963 2.79a.5.5 0 01-.967-.24l.022-.087.933-2.702a14.67 14.67 0 01-2.42-.927l-1.677 2.821a.5.5 0 01-.898-.429l.038-.081 1.651-2.779-.06-.033a14.16 14.16 0 01-1.453-.956l-.256-.198a6.792 6.792 0 01-.421-.359.5.5 0 01.686-.726l.109.097c.11.096.272.228.483.387.499.375 1.08.751 1.737 1.103 1.878 1.004 3.98 1.605 6.257 1.605 2.277 0 4.379-.601 6.255-1.605a13.416 13.416 0 001.737-1.103l.23-.177c.171-.136.293-.242.362-.307a.5.5 0 01.707.02z" id="PasswordHideOutlinedIcon_19_a"></path></defs><use fill="black" fill-rule="nonzero" xlink:href="#PasswordHideOutlinedIcon_19_a"></use></svg>