<svg width="1em" height="1em" viewBox="0 0 24 24" xmlns="http://www.w3.org/2000/svg" xmlns:xlink="http://www.w3.org/1999/xlink" font-size="24"><defs><path d="M12 4.5c2.344 0 4.609 1.38 6.73 3.66a22.236 22.236 0 012.39 3.085l.219.348c.042.069.074.122.094.158a.5.5 0 010 .499l-.14.232-.052.085a22.234 22.234 0 01-2.51 3.274C16.608 18.12 14.343 19.5 12 19.5c-2.345 0-4.61-1.38-6.73-3.66a22.232 22.232 0 01-1.974-2.46l-.288-.425a20.078 20.078 0 01-.13-.199l-.288-.464a.5.5 0 01-.06-.463l.037-.08.018-.03c.193-.328.487-.787.873-1.329a21.82 21.82 0 012-2.43C7.53 5.797 9.729 4.5 12 4.5zm0 1c-1.94 0-3.918 1.167-5.82 3.152a20.833 20.833 0 00-1.906 2.318l-.307.442-.135.202-.248.385.137.216.256.388.141.206c.557.802 1.19 1.604 1.884 2.35C7.952 17.256 9.995 18.5 12 18.5c2.005 0 4.048-1.245 5.998-3.34a21.247 21.247 0 002.281-2.945l.136-.215-.136-.215-.256-.387-.141-.206a21.25 21.25 0 00-1.884-2.351C16.048 6.745 14.005 5.5 12 5.5zm0 3a3.5 3.5 0 110 7 3.5 3.5 0 010-7zm0 1a2.5 2.5 0 100 5 2.5 2.5 0 000-5z" id="PasswordShowOutlinedIcon_20_a"></path></defs><use fill="black" fill-rule="nonzero" xlink:href="#PasswordShowOutlinedIcon_20_a"></use></svg>