<svg width="83" height="83" viewBox="0 0 83 83" fill="none" xmlns="http://www.w3.org/2000/svg">
<g filter="url(#filter0_d_40_41)">
<path d="M8.51709 21.7038L7.5517 19.3869L6.00708 20.0305V21.7038H8.51709ZM41.1027 73.2977L40.1373 75.6146L41.1027 76.0169L42.0681 75.6146L41.1027 73.2977ZM73.6883 21.7038H76.1983V20.0305L74.6537 19.3869L73.6883 21.7038ZM24.8099 28.4925L23.8445 30.8094L24.8099 28.4925ZM43.6093 9.17088L42.6439 11.4878L43.6093 9.17088ZM71.683 60.5559L72.6484 62.8728L71.683 60.5559ZM10.5224 60.5559L9.55697 62.8728L10.5224 60.5559ZM11.0271 57.548V21.7038H6.00708V57.548H11.0271ZM38.5927 35.2811V73.2977H43.6127V35.2811H38.5927ZM42.0681 70.9808L11.4878 58.2389L9.55697 62.8728L40.1373 75.6146L42.0681 70.9808ZM42.0681 75.6146L72.6484 62.8728L70.7176 58.2389L40.1373 70.9808L42.0681 75.6146ZM76.1983 57.548V21.7038H71.1783V57.548H76.1983ZM72.7229 19.3869L40.1373 32.9642L42.0681 37.5981L74.6537 24.0207L72.7229 19.3869ZM37.6307 6.85394L7.5517 19.3869L9.48248 24.0207L39.5615 11.4878L37.6307 6.85394ZM7.5517 24.0207L23.8445 30.8094L25.7753 26.1755L9.48248 19.3869L7.5517 24.0207ZM23.8445 30.8094L40.1373 37.5981L42.0681 32.9642L25.7753 26.1755L23.8445 30.8094ZM74.6537 19.3869L58.3609 12.5982L56.4301 17.2321L72.7229 24.0207L74.6537 19.3869ZM58.3609 12.5982L44.5747 6.85394L42.6439 11.4878L56.4301 17.2321L58.3609 12.5982ZM25.7753 30.8094L58.3609 17.2321L56.4301 12.5982L23.8445 26.1755L25.7753 30.8094ZM39.5615 11.4878C40.5479 11.0768 41.6575 11.0768 42.6439 11.4878L44.5747 6.85394C42.3526 5.92808 39.8528 5.92808 37.6307 6.85394L39.5615 11.4878ZM72.6484 62.8728C74.7981 61.9771 76.1983 59.8768 76.1983 57.548H71.1783C71.1783 57.8502 70.9966 58.1227 70.7176 58.2389L72.6484 62.8728ZM6.00708 57.548C6.00708 59.8768 7.40734 61.9771 9.55697 62.8728L11.4878 58.2389C11.2088 58.1227 11.0271 57.8502 11.0271 57.548H6.00708Z" fill="black"/>
</g>
<defs>
<filter id="filter0_d_40_41" x="0.00708008" y="0.159668" width="82.1913" height="81.8572" filterUnits="userSpaceOnUse" color-interpolation-filters="sRGB">
<feFlood flood-opacity="0" result="BackgroundImageFix"/>
<feColorMatrix in="SourceAlpha" type="matrix" values="0 0 0 0 0 0 0 0 0 0 0 0 0 0 0 0 0 0 127 0" result="hardAlpha"/>
<feOffset/>
<feGaussianBlur stdDeviation="3"/>
<feComposite in2="hardAlpha" operator="out"/>
<feColorMatrix type="matrix" values="0 0 0 0 1 0 0 0 0 1 0 0 0 0 1 0 0 0 0.8 0"/>
<feBlend mode="normal" in2="BackgroundImageFix" result="effect1_dropShadow_40_41"/>
<feBlend mode="normal" in="SourceGraphic" in2="effect1_dropShadow_40_41" result="shape"/>
</filter>
</defs>
</svg>
