<svg width="19" height="23" viewBox="0 0 19 23" fill="none" xmlns="http://www.w3.org/2000/svg">
<path d="M3.89223 5.89224C3.89223 5.40322 4.28865 5.0068 4.77766 5.0068C5.26667 5.0068 5.66309 5.40322 5.66309 5.89224H3.89223ZM9.49998 2.05536C9.01096 2.05536 8.61454 1.65893 8.61454 1.16992C8.61454 0.68091 9.01096 0.284488 9.49998 0.284488V2.05536ZM5.66309 5.89224C5.66309 8.01129 7.38092 9.72912 9.49998 9.72912V11.5C6.4029 11.5 3.89223 8.98931 3.89223 5.89224H5.66309ZM9.49998 9.72912C11.619 9.72912 13.3369 8.01129 13.3369 5.89224H15.1077C15.1077 8.98931 12.597 11.5 9.49998 11.5V9.72912ZM13.3369 5.89224C13.3369 3.77319 11.619 2.05536 9.49998 2.05536V0.284488C12.597 0.284488 15.1077 2.79516 15.1077 5.89224H13.3369Z" fill="white"/>
<path d="M1.23596 17.6209C1.23596 16.6052 1.87448 15.6991 2.83103 15.3575V15.3575C7.14363 13.8173 11.8564 13.8173 16.169 15.3575V15.3575C17.1255 15.6991 17.7641 16.6052 17.7641 17.6209V19.174C17.7641 20.5758 16.5224 21.6527 15.1347 21.4544L14.0079 21.2935C11.0178 20.8663 7.9822 20.8663 4.99212 21.2935L3.86536 21.4544C2.47758 21.6527 1.23596 20.5758 1.23596 19.174V17.6209Z" stroke="white" stroke-width="1.77087"/>
</svg>
